<svg xmlns="http://www.w3.org/2000/svg" viewBox="0 0 144.85 134.93">
  <rect width="144.85" height="134.93" rx="28" fill="#111a14"/>
  <g fill="#fff">
    <path d="M139.29,68.3c-1.21.47-5.77,6.1-7.29,7.5-11.39,10.45-33.61,15.04-45.67,15.85-5.63.38-16.94,0-22.55-.6-1.67-.17-4.78-.73-6.61-1.15-12.44-2.91-24.73-8.68-31.41-17.23-1.42-1.82-6.43-9.5-4.86-11.2,1.18-.32,17.99-.54,35.27-.48v-8.26c-16.56-.07-33.03-.33-35.45-.48,2.87-14.24,24.77-25.66,35.93-27.56,11.88-2.02,28.05-1.78,37.26-.37,8.94,1.37,24.45,7.53,32.3,16.25,1.16,1.28,3.14,4.73,4.89,5.29,1.55.49,4.28-.23,4.95-1.39,1.03-1.78-1.26-7.68-1.69-9.97-.56-2.97-.69-6.27-1.35-9.15-1.25-5.42-4-1.73-8.31-2.12-3.98-.36-8.78-2.49-12.6-3.54-8.02-2.21-15.35-4.55-23.95-4.95-3.14-.15-9.5-1.13-12.68-1.05-2.76.07-8.21,1.19-10.97,1.3C34.56,16.17,1.64,30.94.06,55.47c-1.21,18.77,17.24,33.79,39.57,40.12,7.58,2.15,18.08,3.7,24.2,4.03,5.58.3,16.77.66,22.35.35,8.51-.47,22.84-2.6,33.65-5.53,3.38-.92,12.08-4.31,15.09-3.88,1.78.26,3.5,1.74,5.35.64,1.18-.7,1.31-2.9,1.59-4.05,1.29-5.4,1.71-11.15,3-16.58-.28-2.07-2.89-3.3-5.56-2.26Z"/>
    <path d="M82.33,53.4l1.61-43.11c.79-.75,2.11-.85,3.29-.93,8.91-.61,31.05-.3,37.82,4.16,1.62,1.07,2.06,2.89,4.96,2.18,1.6-.39,1.31-1.39,1.18-2.45-1.58-2.25-2.53-11.1-4.51-12.34C124.86-.22,34.52-.2,25.28.43c-2.42.16-3.06.76-3.71,2.47-1.32,3.45-1.77,7.56-3.27,11.06,1.92,5.04,6.62-.95,9.17-2.04,6.06-2.58,29.08-3.15,36.25-2.55.78.07,1.51.16,2.06.62,0,0,2.39,9.19,3.09,38.46.56,23.38.44,60.73,2.95,71.64.71,3.07,3.47,14.84,4.28,14.85,1.1.01,3.07-11.87,3.92-14.97,3.99-14.64,2.31-66.56,2.31-66.56Z"/>
    <path d="M85.78,61.48c5.45.23,11.72-.41,15.41,3.29,1.09,1.1,1.81,3.17,2.74,3.8,2.11,1.43,3.08.08,3.36-1.69.59-3.75,1.54-20.91-.95-22.26-2.71-1.47-3.13,1.89-4.33,3.41-2.48,3.14-6.38,3.72-10.92,4.18-4.77.48-19.89.58-34.92.51v8.26c10.98.04,22.14.19,29.61.5Z"/>
  </g>
</svg>
