<svg xmlns="http://www.w3.org/2000/svg" viewBox="0 0 182.27 175.87">
  <defs>
    <style>
      .cls-1 { fill: #0f1c33; }
      .cls-2 { fill: #c4874a; stroke: #0f1c33; stroke-width: 2px; stroke-miterlimit: 10; }
      .cls-3 { fill: #f5f0e8; stroke: none; }
      .cls-4 { fill: #efe9d8; }
    </style>
  </defs>
  <g>
    <circle class="cls-3" cx="93.02" cy="81.41" r="79.91"/>
    <g>
      <path class="cls-4" d="M181.88,47.8c-.42-.32-5.81-1.89-6.81-2.17-12.4-3.43-25.83-4.86-38.54-6.71-3.39-3.4-5.71-7.63-9.99-10.12-5.42-3.16-18.7-6.87-24.87-6.55-4.81.25-18.55,5.46-22.48,8.34-4.63,3.4-3.84,5.27-5.87,9.93-2.13,4.88-4.29,8-4.89,13.79-.24,2.32.41,7.5-.81,9.25-.66.94-2.98,2.37-3.91,3.27-7.75,7.48-16.67,17.32-20.71,27.42-2.7,6.75-4.53,14.48-6.93,21.44-1.24,3.59-4.37,9.49-4.67,12.92-.13,1.48.36,3.17.12,4.4-.53,2.71-5.21,6.08-1.94,8.8,2.01,1.68,6.68-1.86,8.99-2.25-1,3.45-2.15,6.87-2.45,10.47-1.8.01-3.6.03-5.38.03-5.24,0-11.23.28-16.17,1.53-.74.06-.62-.43-1.47-.23-3.47,1.01-6.98,2.05-10.23,3.71-2.42,1.15-2.68,3.16.33,4.12,5.19,1.53,10.05,3.99,15.53,3.94,4.65.1,9.39-.37,14.02-.18.13,0,.26,0,.39,0l-2.1,9.46c.15,1.98.8,3.54,3.04,3.44,1.44-.06,2.8-1.53,3.76-1.66.72-.1,1.02,1.03,3.14-.09,1.35-.71,1.73-1.85,2.65-2.75,2.93-2.86,3.15-3.94,5.43-7.13.27-.38.55-.75.83-1.12,12.68-.09,25.37-.53,38.03-.63-.07,1.24.07,2.48,1.12,2.23.13-.03.87-1.16,1.53-2.25.78,0,1.57,0,2.35.02.06.39.13.78.25,1.15.71.13.88-.32,1.11-.87.02-.06.06-.15.1-.27,3.49.07,6.97.23,10.41.47,7.28-.31,24.47-.22,25.94-.05,3.89.44,8.03.38,11.81.92,6.34.93,12.67,3.78,18.27,6.66,1.98.75,4.53,1.24,6.55.27,1.43-1.35,1.65-3.73,1.71-5.63-.08-1.18-.28-2.34.22-3.45l.03-.1c.69-3.33.71-6.83.25-10.15-.18-2.91,0-6.52-1.1-9.36-1.3-2.82-4.95-1.48-7.35-1.43-2.5.37-4.51,2.56-6.71,3.64-6.37,3.35-21.03,5.06-20.9,5.21.07.06-.03.09-.1.12-.08.03-.18.06-.32.08-2.01.25-4.06.19-6.11.21-4.37-.03-8.77-.29-13.14-.4-1.82-.04-3.63-.05-5.45-.04-.3-.07-1.69-1.33-2.47-1.65-3.8-1.58-5.94-.37-8.97-4.32-.65-.85-2.76-4.04-2-4.83.64-.66,3.49-1.87,4.57-2.61,18.03-12.38,30.66-37.04,27.72-59.14-.24-1.83-1.32-4.13-1.66-6.24-.93-5.73-.65-6.38,3.36-10.26,3.73-3.61,7.5-6.28,12.86-6.71,10.2-.82,20.73-.95,30.86-2.54,1.31-.21,8.92-1.87,9.39-2.47.35-.45.19-.6-.2-.89ZM89.66,150.42c-4.77.08-9.42-.8-14.17-.98-4.83-.18-9.62.85-14.41,1.22-8.1.63-8.03-11.97,0-12.59,4.81-.38,9.58-1.37,14.41-1.22,4.75.15,9.39,1.06,14.17.98,8.12-.14,8.1,12.46,0,12.59Z"/>
      <path class="cls-2" d="M169.33,161.58c.69-3.33.71-6.83.25-10.15-.18-2.91,0-6.52-1.1-9.36-1.3-2.82-4.95-1.48-7.35-1.43-2.5.37-4.51,2.56-6.71,3.64-6.37,3.35-21.03,5.06-20.9,5.21.07.06-.03.09-.1.12-.08.03-.18.05-.32.08-2.01.25-4.06.19-6.11.21-4.37-.03-8.77-.29-13.14-.4-13.39-.28-26.78.79-40.16.72-7.49.12-14.97-.42-22.48-.39-6.83.15-13.73.22-20.47.22-5.24,0-11.23.28-16.17,1.53-.74.06-.62-.43-1.47-.23-3.47,1.01-6.98,2.05-10.23,3.71-2.42,1.15-2.68,3.16.33,4.12,5.19,1.53,10.05,3.99,15.53,3.94,4.65.1,9.39-.37,14.02-.18,19.17.58,38.45-.42,57.64-.5,4.83-.01,9.66.18,14.41.51,7.28-.31,24.47-.22,25.94-.05,3.89.44,8.03.38,11.81.92,6.34.93,12.67,3.78,18.27,6.66,1.98.75,4.53,1.24,6.55.27,1.43-1.35,1.65-3.73,1.71-5.63-.08-1.18-.28-2.34.22-3.45l.03-.1Z"/>
      <path class="cls-1" d="M181.88,47.8c-.42-.32-5.81-1.89-6.81-2.17-12.4-3.43-25.83-4.86-38.54-6.71-3.39-3.4-5.71-7.63-9.99-10.12-5.42-3.16-18.7-6.87-24.87-6.55-4.81.25-18.55,5.46-22.47,8.34-4.63,3.4-3.84,5.27-5.87,9.93-2.13,4.88-4.29,8-4.89,13.79-.24,2.32.41,7.5-.81,9.25-.66.94-2.98,2.37-3.91,3.27-7.75,7.48-16.67,17.32-20.71,27.42-2.7,6.75-4.53,14.48-6.93,21.44-1.24,3.59-4.37,9.49-4.67,12.92-.13,1.48.36,3.17.12,4.4-.53,2.71-5.21,6.08-1.94,8.8,2.01,1.68,6.68-1.86,8.99-2.25-1.1,3.78-2.39,7.51-2.52,11.49-.31.55-1.07,3.6-1.07,3.6l-3.95,17.78c.15,1.98.8,3.54,3.04,3.44,1.44-.06,2.8-1.53,3.76-1.66.72-.1,1.02,1.03,3.14-.09,1.35-.71,1.73-1.85,2.65-2.75,2.93-2.86,3.15-3.94,5.43-7.13,2.33-3.26,4.9-6.36,7.35-9.53.37-.66,2.4-2.51,3-3.65.7-.69,2.43-3.62,3.12-3.88,1.24-.47,6.29-.64,8.09-.89,1.8-.26,3.83-.68,5.56-1.27,1-.02,2.58,2.8,3.34,3.52-1.5-.39.66,5.03,3.73,4.4,1.96,1.57,4.84,4.64,4.91,7.29.01.61-1,4.93.88,4.48.24-.06,2.59-3.93,2.63-4.2.18-1.22-.77-2.87-1.01-4.06,2.73,1.55,1.7,4.64,2.51,7.18.71.13.88-.32,1.11-.87.21-.5,1.25-3.61,1.33-4.07.42-2.43-1.56-4.14-2.44-6.2,1.83.5,6.73-.86,8.25-.18.72.32,2,2.38,2.24,3.16.44,1.43.02,2.63.28,3.59.07.26,1.31,1.71,1.97.97.97-1.09,1.21-3.61,1.09-5.02,1.59,1.87.59,4.83,2.16,6.82.77-1.4,2.15-4.48,2.23-5.98.05-.96-1.49-3.57-1.33-3.71,0,0-.55-2.51-1.63-2.67-.28-.04-1.69-1.33-2.48-1.66-3.8-1.58-5.94-.37-8.97-4.32-.65-.85-2.76-4.04-2-4.83.64-.66,3.49-1.87,4.57-2.61,18.03-12.38,30.66-37.04,27.73-59.14-.24-1.83-1.32-4.13-1.66-6.24-.93-5.73-.65-6.38,3.36-10.26,3.73-3.61,7.5-6.28,12.86-6.71,10.2-.82,20.73-.95,30.86-2.54,1.31-.21,8.92-1.87,9.39-2.47.35-.45.19-.6-.2-.89Z"/>
      <path class="cls-1" d="M66.71,162.62c-.18-1.56-.93-3.01-1.01-4.6-.06-1.13.4-6.22.79-7.15.31-.73,3.9-.11,4.78-.44-1.08,4.04-.9,8.17.23,12.18h-4.79Z"/>
      <path class="cls-1" d="M72.74,162.62c-1.37-3.69-1.37-8.14-.2-11.9l4.75-.28c-1.31,3.86-1.41,8.43.23,12.18h-4.79Z"/>
      <path class="cls-1" d="M125.25,162.62h-4.68c-1.65-3.92-1.37-8.52-.35-12.59h5.15c-1.05,3.65-1.22,7.09-.4,10.81.13.57.53,1.17.63,1.66.16.77-.32.12-.35.12Z"/>
      <path class="cls-1" d="M114.28,162.66c-1.16-.28-1.34-6.53-1.26-7.74.05-.72.61-4.39,1.06-4.56,1.21-.45,3.32.48,4.64.22.12.12-.93,2.82-.85,3.37.06.38.3,1.02.14,1.25-.65.95.41,6.31.93,7.56l-4.68-.09Z"/>
    </g>
  </g>
</svg>
